<?xml version="1.0" encoding="UTF-8" standalone="no" ?>
<!DOCTYPE svg PUBLIC "-//W3C//DTD SVG 1.1//EN" "http://www.w3.org/Graphics/SVG/1.1/DTD/svg11.dtd">
<svg xmlns="http://www.w3.org/2000/svg" xmlns:xlink="http://www.w3.org/1999/xlink" version="1.1" width="1280" height="1024" viewBox="0 0 1280 1024" xml:space="preserve">
<desc>Created with Fabric.js 5.3.0</desc>
<defs>
</defs>
<g transform="matrix(1 0 0 1 640 512)" id="background-logo"  >
<rect style="stroke: none; stroke-width: 0; stroke-dasharray: none; stroke-linecap: butt; stroke-dashoffset: 0; stroke-linejoin: miter; stroke-miterlimit: 4; fill: rgb(255,255,255); fill-opacity: 0; fill-rule: nonzero; opacity: 1;"  paint-order="stroke"  x="-640" y="-512" rx="0" ry="0" width="1280" height="1024" />
</g>
<g transform="matrix(1.3880079317299032 0 0 1.3880079317299032 197.01402467366285 592.8560903695469)" id="logo-logo"  >
<g style=""  paint-order="stroke"   >
		<g transform="matrix(0.4198375707729898 0 0 0.41983757077298983 -68.42932566028958 3.3633954692458587)"  >
<linearGradient id="SVGID_60_147262" gradientUnits="userSpaceOnUse" gradientTransform="matrix(1 0 0 1 0 0)"  x1="320.47" y1="623.51" x2="320.47" y2="411.09">
<stop offset="0%" style="stop-color:rgb(32,21,148);stop-opacity: 1"/>
<stop offset="100%" style="stop-color:rgb(45,218,189);stop-opacity: 1"/>
</linearGradient>
<path style="stroke: none; stroke-width: 1; stroke-dasharray: none; stroke-linecap: butt; stroke-dashoffset: 0; stroke-linejoin: miter; stroke-miterlimit: 4; fill: url(#SVGID_60_147262); fill-rule: nonzero; opacity: 1;"  paint-order="stroke"  transform=" translate(-320.47, -517.3661110447088)" d="M 392.51 553.08 C 389.81 558 387.05 562.88 384.19 567.69 C 380.38 574.07 376.41 580.35 372.09 586.49 L 371 588 C 368.64 591.31 366.15 594.58 363.5 597.8 C 362.85 598.5999999999999 362.15 599.4 361.5 600.1899999999999 C 360.85 600.9799999999999 360.12 601.78 359.39 602.5699999999999 C 357.96999999999997 604.15 356.45 605.6999999999999 354.89 607.2399999999999 C 353.33 608.7799999999999 351.64 610.2399999999999 349.89 611.7499999999999 C 348.05428374350316 613.2761280229415 346.13461700402723 614.6983506855794 344.14 616.0099999999999 C 341.9903334723808 617.4385723122981 339.7374612656634 618.705395111031 337.4 619.7999999999998 C 334.81623259129555 621.0042194343888 332.1153187628443 621.9391511442373 329.34 622.5899999999998 C 326.3362376265269 623.2934777781664 323.25364518909424 623.6027455036232 320.16999999999996 623.5099999999998 C 317.4116511214128 623.4165450250357 314.6703808112368 623.0378609846324 311.98999999999995 622.3799999999998 C 309.41248698324335 621.7423764650193 306.9012463309412 620.8617680762786 304.48999999999995 619.7499999999998 C 302.2468136008613 618.7082488057135 300.0929161062057 617.4841393599932 298.04999999999995 616.0899999999998 C 294.42819097801225 613.5896729520025 291.11513342916294 610.6693486688223 288.17999999999995 607.3899999999998 C 286.78999999999996 605.8799999999998 285.53 604.3899999999998 284.34999999999997 602.8199999999997 C 283.16999999999996 601.2499999999997 282.04999999999995 599.7399999999997 281.02 598.2099999999997 C 277.1611912297098 592.4068494776476 273.74806952524426 586.3193914719359 270.81 580 C 267.99 574 265.58 568.18 263.36 562.47 C 262.8 561.01 262.24 559.5500000000001 261.71000000000004 558.11 C 258 548.26 254.92 538.87 252 530 C 250.77 526.29 249.59 522.66 248.43 519.12 Q 250.98000000000002 514.27 253.56 509.12 C 254.56 507.12 255.56 505.06 256.61 502.98 C 259.93 496.23 263.33000000000004 489.12 266.90000000000003 481.74 Q 270.40000000000003 474.49 274.14000000000004 466.95 C 276.65000000000003 461.95 279.27000000000004 456.83 282.04 451.72999999999996 C 284.81 446.62999999999994 287.75 441.50999999999993 290.92 436.53999999999996 C 293.99796305096095 431.6005689581204 297.4444226442256 426.90054743714074 301.23 422.47999999999996 C 302.15000000000003 421.40999999999997 303.1 420.39 304.06 419.47999999999996 C 305.02 418.56999999999994 306 417.59 306.98 416.75999999999993 C 308.7595031636342 415.20233969994194 310.71632358673617 413.85975278872274 312.81 412.75999999999993 C 314.39805072537933 411.92528636124877 316.13391212947215 411.40894402578476 317.92 411.23999999999995 C 318.67333040528115 411.1798333197388 319.4309232303827 411.19994640359107 320.18 411.29999999999995 C 320.63215947500936 411.41404524671066 321.0711987494042 411.5749145991607 321.49 411.78 C 323.0380391725992 412.5448346950269 324.4745967789844 413.517118414571 325.76 414.66999999999996 C 327.70924384840663 416.39122531340666 329.50902457033305 418.2746389685081 331.14 420.29999999999995 C 332.06 421.42999999999995 332.97999999999996 422.59 333.88 423.84 C 334.34 424.45 334.78 425.10999999999996 335.24 425.73999999999995 C 335.70000000000005 426.36999999999995 336.13 427.03 336.58 427.73999999999995 C 338.34999999999997 430.41999999999996 340.09 433.25999999999993 341.78 436.22999999999996 C 345.16999999999996 442.15999999999997 348.4 448.53999999999996 351.53 455.16999999999996 C 354.65999999999997 461.79999999999995 357.72999999999996 468.65999999999997 360.75 475.71999999999997 C 363.77000000000004 482.78 366.75 490.01 369.75 497.39 L 372 502.9 Q 375.39 511.27 378.82 519.77 C 381.9 527.4 385.03 535.14 388.27 542.98 Q 390.36 548 392.51 553.08 Z" stroke-linecap="round" />
</g>
		<g transform="matrix(0.4198375707729898 0 0 0.41983757077298983 0.0461821327850771 -9.633173061386287)"  >
<linearGradient id="SVGID_61_147263" gradientUnits="userSpaceOnUse" gradientTransform="matrix(1 0 0 1 0 0)"  x1="483.46" y1="620.74" x2="483.46" y2="352.14">
<stop offset="0%" style="stop-color:rgb(208,104,242);stop-opacity: 1"/>
<stop offset="100%" style="stop-color:rgb(32,21,148);stop-opacity: 1"/>
</linearGradient>
<path style="stroke: none; stroke-width: 1; stroke-dasharray: none; stroke-linecap: butt; stroke-dashoffset: 0; stroke-linejoin: miter; stroke-miterlimit: 4; fill: url(#SVGID_61_147263); fill-rule: nonzero; opacity: 1;"  paint-order="stroke"  transform=" translate(-483.57000000000005, -486.4099283793429)" d="M 574.4 460.12 Q 572.63 463.34000000000003 570.9 466.59000000000003 C 563.3 480.83000000000004 556.0699999999999 495.45000000000005 548.9 510.3 L 548.9 510.38 C 541.7099999999999 525.25 534.48 540.32 527.01 555.29 C 523.26 562.77 519.43 570.2099999999999 515.45 577.49 Q 512.45 582.95 509.35 588.24 C 507.28000000000003 591.76 505.17 595.24 503.01000000000005 598.54 C 500.8500000000001 601.8399999999999 498.64000000000004 605.04 496.39000000000004 607.98 C 494.3177279474077 610.7386024935729 492.06973072507236 613.3607092090756 489.66 615.83 C 488.57000000000005 616.9200000000001 487.5 617.9000000000001 486.53000000000003 618.69 C 485.7403017572168 619.3439388997842 484.90112381794614 619.9357097971982 484.02000000000004 620.46 C 483.86 620.5400000000001 483.70000000000005 620.6500000000001 483.57000000000005 620.7 L 483.57000000000005 620.7 L 483.57000000000005 620.7 L 483.57000000000005 620.7 C 483.44000000000005 620.6500000000001 483.28000000000003 620.5400000000001 483.12000000000006 620.46 C 482.23887618205396 619.9357097971982 481.3996982427833 619.3439388997842 480.61000000000007 618.69 C 479.5175782913753 617.7918185789002 478.47282143465986 616.8371845181315 477.4800000000001 615.83 C 475.07306864914557 613.3581496031868 472.82522918672873 610.7362269018537 470.75000000000006 607.98 C 468.50000000000006 605.04 466.2900000000001 601.85 464.13000000000005 598.54 C 461.97 595.2299999999999 459.86000000000007 591.76 457.7900000000001 588.24 C 455.7200000000001 584.72 453.68000000000006 581.13 451.69000000000005 577.49 C 447.69000000000005 570.21 443.88000000000005 562.77 440.14000000000004 555.29 C 432.67 540.29 425.43000000000006 525.29 418.24000000000007 510.38 C 418.2435715000716 510.35345291720296 418.2435715000716 510.32654708279705 418.24000000000007 510.3 C 411.06000000000006 495.45 403.83000000000004 480.83000000000004 396.24000000000007 466.59000000000003 Q 394.52000000000004 463.35 392.74000000000007 460.12 Q 395.62000000000006 453.31 398.68000000000006 446.42 C 401.86000000000007 439.25 405.19000000000005 432.01 408.7800000000001 424.70000000000005 C 409.2000000000001 423.84000000000003 409.6300000000001 422.98 410.06000000000006 422.12000000000006 Q 413.12000000000006 415.9800000000001 416.49000000000007 409.7800000000001 Q 419.86000000000007 403.5800000000001 423.70000000000005 397.3300000000001 C 426.29 393.1600000000001 429.05000000000007 388.9700000000001 432.15000000000003 384.7500000000001 C 435.3331719149006 380.27366397326364 438.81086391883224 376.01424293098427 442.56 372 C 444.7112228739868 369.7562866843589 446.9846826383648 367.6330555387724 449.37 365.64000000000004 C 452.0661906792968 363.3750220627777 454.93861889503904 361.3285423561023 457.9599999999999 359.52 C 458.78 359.03 459.59999999999997 358.52 460.48999999999995 358.09 L 461.19999999999993 357.71 L 461.94999999999993 357.33 L 463.49999999999994 356.59999999999997 C 465.5817190057488 355.65187431093045 467.7229058271578 354.84016074212803 469.90999999999997 354.16999999999996 C 478.73312970050904 351.43647567824763 488.1768702994908 351.43647567824763 496.9999999999999 354.16999999999996 C 499.18766795854526 354.8384836666474 501.328963173394 355.65023832687865 503.40999999999997 356.59999999999997 L 504.96 357.33 L 505.71 357.71 L 506.41999999999996 358.09 C 507.30999999999995 358.54999999999995 508.12999999999994 359.03 508.94999999999993 359.52 C 511.97138110496087 361.3285423561022 514.8438093207031 363.3750220627777 517.54 365.64 C 519.9253173616352 367.63305553877234 522.1987771260132 369.75628668435894 524.3499999999999 372.00000000000006 C 528.1848136571248 376.00376085067415 531.743016432376 380.26358107456633 535 384.75 C 538.11 388.97 540.87 393.16 543.45 397.33 C 546.0300000000001 401.49999999999994 548.45 405.65 550.6700000000001 409.78 C 552.8900000000001 413.90999999999997 555.0600000000001 418.03 557.09 422.11999999999995 C 557.5 422.93999999999994 557.9100000000001 423.75999999999993 558.3100000000001 424.5799999999999 C 561.9300000000001 431.92999999999995 565.3100000000001 439.2099999999999 568.48 446.4199999999999 Q 571.52 453.3 574.4 460.12 Z" stroke-linecap="round" />
</g>
		<g transform="matrix(0.4198375707729898 0 0 0.41983757077298983 68.44611916312056 3.3445027785611217)"  >
<linearGradient id="SVGID_62_147264" gradientUnits="userSpaceOnUse" gradientTransform="matrix(1 0 0 1 0 0)"  x1="646.45" y1="623.51" x2="646.45" y2="411.09">
<stop offset="0%" style="stop-color:rgb(41,27,189);stop-opacity: 1"/>
<stop offset="100%" style="stop-color:rgb(54,209,31);stop-opacity: 1"/>
</linearGradient>
<path style="stroke: none; stroke-width: 1; stroke-dasharray: none; stroke-linecap: butt; stroke-dashoffset: 0; stroke-linejoin: miter; stroke-miterlimit: 4; fill: url(#SVGID_62_147264); fill-rule: nonzero; opacity: 1;"  paint-order="stroke"  transform=" translate(-646.49, -517.3211110447089)" d="M 718.49 519.07 Q 716.75 524.38 714.9300000000001 529.95 C 712.5100000000001 537.2900000000001 709.9300000000001 544.95 707.1 552.95 Q 705.4 557.6500000000001 703.5400000000001 562.48 C 701.34 568.19 698.9200000000001 574.04 696.1 580.01 C 693.1655985174095 586.3325115038568 689.7558161286825 592.4233188688181 685.9 598.23 Q 684.36 600.52 682.5699999999999 602.84 C 681.3799999999999 604.37 680.1199999999999 605.9 678.7399999999999 607.4100000000001 C 675.8048665708369 610.6893486688226 672.4918090219876 613.6096729520028 668.8699999999999 616.1100000000001 C 666.8270838937941 617.5041393599935 664.6731863991386 618.7282488057139 662.4299999999998 619.7700000000001 C 660.0193673004404 620.883283250143 657.507980053616 621.763943044696 654.9299999999998 622.4000000000001 C 652.2497542640627 623.0585669832344 649.5084102653458 623.4372612031061 646.7499999999999 623.5300000000001 C 643.6663548109057 623.6227455036235 640.583762373473 623.3134777781668 637.5799999999999 622.6100000000001 C 634.8046812371556 621.9591511442376 632.1037674087044 621.0242194343891 629.52 619.8200000000002 C 627.1804756466911 618.7231802371305 624.9244389261446 617.4564573970015 622.77 616.0300000000002 C 620.7802540228394 614.7159639945032 618.864045243068 613.2938299523731 617.03 611.7700000000002 C 615.27 610.3000000000002 613.5799999999999 608.7700000000002 612.03 607.2600000000002 C 610.48 605.7500000000002 608.9499999999999 604.1700000000002 607.53 602.5900000000003 C 606.8 601.8000000000003 606.13 601.0100000000002 605.42 600.2100000000003 C 604.7099999999999 599.4100000000003 604.05 598.6200000000002 603.42 597.8200000000003 C 600.76 594.6000000000003 598.28 591.3300000000003 595.92 588.0200000000003 L 595.81 587.8600000000004 C 591.1199999999999 581.2900000000003 586.81 574.5600000000004 582.81 567.7200000000004 C 579.9499999999999 562.9100000000004 577.1899999999999 558.0300000000003 574.4899999999999 553.1100000000004 Q 576.6399999999999 548.0400000000003 578.7099999999999 543.0100000000003 C 581.9499999999999 535.1700000000003 585.0799999999999 527.4300000000003 588.16 519.8000000000003 Q 591.5899999999999 511.3000000000003 594.98 502.9300000000003 L 597.26 497.2800000000003 C 600.26 489.9000000000003 603.26 482.6600000000003 606.26 475.6100000000003 C 609.26 468.5600000000003 612.34 461.6800000000003 615.48 455.0600000000003 C 618.62 448.4400000000003 621.84 442.0600000000003 625.23 436.1200000000003 C 626.9200000000001 433.1200000000003 628.66 430.3100000000003 630.44 427.6300000000003 C 630.8800000000001 426.9500000000003 631.33 426.3200000000003 631.7700000000001 425.6300000000003 C 632.2100000000002 424.9400000000003 632.6700000000001 424.34000000000026 633.1300000000001 423.7300000000003 C 634.0300000000001 422.4800000000003 634.9500000000002 421.3200000000003 635.8700000000001 420.1900000000003 C 637.500975429667 418.1646389685084 639.3007561515934 416.281225313407 641.2500000000001 414.5600000000003 C 642.5354032210157 413.4071184145713 643.971960827401 412.43483469502723 645.5200000000001 411.6700000000003 C 645.9388012505959 411.46491459916103 646.3778405249907 411.304045246711 646.83 411.1900000000003 C 647.5790767696174 411.0899464035914 648.3366695947188 411.06983331973913 649.09 411.1300000000003 C 650.8731593186023 411.2976767093167 652.6059891001403 411.8141279383241 654.19 412.65000000000026 C 656.2883782166124 413.74706521476463 658.2488161907555 415.08983095047904 660.0300000000001 416.65000000000026 C 661.0300000000001 417.48000000000025 662.0300000000001 418.40000000000026 662.95 419.3700000000003 C 663.87 420.3400000000003 664.86 421.3700000000003 665.7900000000001 422.3700000000003 C 669.539369930699 426.80593009791727 672.9521955642543 431.51569632483154 676 436.4599999999999 C 679.17 441.46 682.11 446.53999999999996 684.88 451.65 C 687.65 456.76 690.27 461.84999999999997 692.78 466.87 C 695.29 471.89000000000004 697.6899999999999 476.87 700.03 481.66 C 703.5899999999999 489.04 707.03 496.15000000000003 710.31 502.90000000000003 Q 711.8399999999999 506.02000000000004 713.3599999999999 509.04 Q 715.94 514.22 718.49 519.07 Z" stroke-linecap="round" />
</g>
		<g transform="matrix(0.4198375707729898 0 0 0.41983757077298983 -68.42932566028958 -4.406970774415157)"  >
<linearGradient id="SVGID_63_147265" gradientUnits="userSpaceOnUse" gradientTransform="matrix(1 0 0 1 0 0)"  x1="320.47" y1="586.49" x2="320.47" y2="411.09">
<stop offset="0%" style="stop-color:rgb(51,29,158);stop-opacity: 0"/>
<stop offset="13%" style="stop-color:rgb(50,28,157);stop-opacity: 0.08"/>
<stop offset="37%" style="stop-color:rgb(46,27,155);stop-opacity: 0.28"/>
<stop offset="68%" style="stop-color:rgb(39,24,152);stop-opacity: 0.61"/>
<stop offset="100%" style="stop-color:rgb(32,21,148);stop-opacity: 1"/>
</linearGradient>
<path style="stroke: none; stroke-width: 1; stroke-dasharray: none; stroke-linecap: butt; stroke-dashoffset: 0; stroke-linejoin: miter; stroke-miterlimit: 4; fill: url(#SVGID_63_147265); fill-rule: nonzero; opacity: 1;"  paint-order="stroke"  transform=" translate(-320.47, -498.8580813098889)" d="M 388.29 543 Q 390.36 548 392.51000000000005 553.1 C 389.81000000000006 558.02 387.05000000000007 562.9 384.19000000000005 567.71 C 380.38000000000005 574.09 376.4100000000001 580.37 372.09000000000003 586.51 C 351 540.12 328.7 462 312.33 465.25 C 296.84 468.34 272.56 528.94 261.71 558.09 C 258 548.26 254.92 538.87 252 530 C 250.77 526.29 249.59 522.66 248.43 519.12 Q 250.98000000000002 514.27 253.56 509.12 C 254.56 507.12 255.56 505.06 256.61 502.98 C 259.93 496.23 263.33000000000004 489.12 266.90000000000003 481.74 Q 270.40000000000003 474.49 274.14000000000004 466.95 C 276.65000000000003 461.95 279.27000000000004 456.83 282.04 451.72999999999996 C 284.81 446.62999999999994 287.75 441.50999999999993 290.92 436.53999999999996 C 293.99796305096095 431.6005689581204 297.4444226442256 426.90054743714074 301.23 422.47999999999996 C 302.15000000000003 421.40999999999997 303.1 420.39 304.06 419.47999999999996 C 305.02 418.56999999999994 306 417.59 306.98 416.75999999999993 C 308.7595031636342 415.20233969994194 310.71632358673617 413.85975278872274 312.81 412.75999999999993 C 314.39805072537933 411.92528636124877 316.13391212947215 411.40894402578476 317.92 411.23999999999995 C 318.67333040528115 411.1798333197388 319.4309232303827 411.19994640359107 320.18 411.29999999999995 C 320.63215947500936 411.41404524671066 321.0711987494042 411.5749145991607 321.49 411.78 C 323.0380391725992 412.5448346950269 324.4745967789844 413.517118414571 325.76 414.66999999999996 C 327.70924384840663 416.39122531340666 329.50902457033305 418.2746389685081 331.14 420.29999999999995 C 332.06 421.42999999999995 332.97999999999996 422.59 333.88 423.84 C 334.34 424.45 334.78 425.10999999999996 335.24 425.73999999999995 C 335.70000000000005 426.36999999999995 336.13 427.03 336.58 427.73999999999995 C 338.34999999999997 430.41999999999996 340.09 433.25999999999993 341.78 436.22999999999996 C 345.16999999999996 442.15999999999997 348.4 448.53999999999996 351.53 455.16999999999996 C 354.65999999999997 461.79999999999995 357.72999999999996 468.65999999999997 360.75 475.71999999999997 C 363.77000000000004 482.78 366.75 490.01 369.75 497.39 L 372 502.9 Q 375.39 511.27 378.82 519.77 C 381.92 527.4 385.05 535.14 388.29 543 Z" stroke-linecap="round" />
</g>
		<g transform="matrix(0.4198375707729898 0 0 0.41983757077298983 0.0461821327850771 5.5817705724696225)"  >
<linearGradient id="SVGID_64_147266" gradientUnits="userSpaceOnUse" gradientTransform="matrix(1 0 0 1 0 0)"  x1="483.46" y1="620.74" x2="483.46" y2="424.58">
<stop offset="0%" style="stop-color:rgb(32,21,148);stop-opacity: 1"/>
<stop offset="32%" style="stop-color:rgb(39,24,152);stop-opacity: 0.61"/>
<stop offset="63%" style="stop-color:rgb(46,27,155);stop-opacity: 0.28"/>
<stop offset="87%" style="stop-color:rgb(50,28,157);stop-opacity: 0.08"/>
<stop offset="100%" style="stop-color:rgb(51,29,158);stop-opacity: 0"/>
</linearGradient>
<path style="stroke: none; stroke-width: 1; stroke-dasharray: none; stroke-linecap: butt; stroke-dashoffset: 0; stroke-linejoin: miter; stroke-miterlimit: 4; fill: url(#SVGID_64_147266); fill-rule: nonzero; opacity: 1;"  paint-order="stroke"  transform=" translate(-483.57000000000005, -522.6500000000001)" d="M 574.4 460.12 Q 572.63 463.34000000000003 570.9 466.59000000000003 C 563.3 480.83000000000004 556.0699999999999 495.45000000000005 548.9 510.3 L 548.9 510.38 C 541.7099999999999 525.25 534.48 540.32 527.01 555.29 C 523.26 562.77 519.43 570.2099999999999 515.45 577.49 Q 512.45 582.95 509.35 588.24 C 507.28000000000003 591.76 505.17 595.24 503.01000000000005 598.54 C 500.8500000000001 601.8399999999999 498.64000000000004 605.04 496.39000000000004 607.98 C 494.3177279474077 610.7386024935729 492.06973072507236 613.3607092090756 489.66 615.83 C 488.57000000000005 616.9200000000001 487.5 617.9000000000001 486.53000000000003 618.69 C 485.7403017572168 619.3439388997842 484.90112381794614 619.9357097971982 484.02000000000004 620.46 C 483.86 620.5400000000001 483.70000000000005 620.6500000000001 483.57000000000005 620.7 L 483.57000000000005 620.7 L 483.57000000000005 620.7 L 483.57000000000005 620.7 C 483.44000000000005 620.6500000000001 483.28000000000003 620.5400000000001 483.12000000000006 620.46 C 482.23887618205396 619.9357097971982 481.3996982427833 619.3439388997842 480.61000000000007 618.69 C 479.5175782913753 617.7918185789002 478.47282143465986 616.8371845181315 477.4800000000001 615.83 C 475.07306864914557 613.3581496031868 472.82522918672873 610.7362269018537 470.75000000000006 607.98 C 468.50000000000006 605.04 466.2900000000001 601.85 464.13000000000005 598.54 C 461.97 595.2299999999999 459.86000000000007 591.76 457.7900000000001 588.24 C 455.7200000000001 584.72 453.68000000000006 581.13 451.69000000000005 577.49 C 447.69000000000005 570.21 443.88000000000005 562.77 440.14000000000004 555.29 C 432.67 540.29 425.43000000000006 525.29 418.24000000000007 510.38 C 418.2435715000716 510.35345291720296 418.2435715000716 510.32654708279705 418.24000000000007 510.3 C 411.06000000000006 495.45 403.83000000000004 480.83000000000004 396.24000000000007 466.59000000000003 Q 394.52000000000004 463.35 392.74000000000007 460.12 Q 395.62000000000006 453.31 398.68000000000006 446.42 C 401.86000000000007 439.25 405.19000000000005 432.01 408.7800000000001 424.70000000000005 C 426.7100000000001 467.23 470.06000000000006 566.6 483.6700000000001 566.6 C 497.2800000000001 566.6 540.6700000000001 467.04 558.5200000000001 424.6 C 562.1400000000001 431.95000000000005 565.5200000000001 439.23 568.69 446.44 Q 571.52 453.3 574.4 460.12 Z" stroke-linecap="round" />
</g>
		<g transform="matrix(0.4198375707729898 0 0 0.41983757077298983 68.43772241170507 -4.163464983366879)"  >
<linearGradient id="SVGID_65_147267" gradientUnits="userSpaceOnUse" gradientTransform="matrix(1 0 0 1 0 0)"  x1="646.45" y1="587.83" x2="646.45" y2="411.09">
<stop offset="0%" style="stop-color:rgb(51,29,158);stop-opacity: 0"/>
<stop offset="13%" style="stop-color:rgb(50,28,157);stop-opacity: 0.08"/>
<stop offset="37%" style="stop-color:rgb(46,27,155);stop-opacity: 0.28"/>
<stop offset="68%" style="stop-color:rgb(39,24,152);stop-opacity: 0.61"/>
<stop offset="100%" style="stop-color:rgb(32,21,148);stop-opacity: 1"/>
</linearGradient>
<path style="stroke: none; stroke-width: 1; stroke-dasharray: none; stroke-linecap: butt; stroke-dashoffset: 0; stroke-linejoin: miter; stroke-miterlimit: 4; fill: url(#SVGID_65_147267); fill-rule: nonzero; opacity: 1;"  paint-order="stroke"  transform=" translate(-646.47, -499.4380813098888)" d="M 718.49 519.07 Q 716.75 524.38 714.9300000000001 529.95 C 712.5100000000001 537.2900000000001 709.9300000000001 544.95 707.1 552.95 C 683.6 514.65 667.6 454 651.9 454 C 634.9599999999999 454 605.36 553.81 595.77 587.8199999999999 C 591.0799999999999 581.2499999999999 586.77 574.52 582.77 567.68 C 579.91 562.87 577.15 557.9899999999999 574.4499999999999 553.0699999999999 Q 576.5999999999999 547.9999999999999 578.67 542.9699999999999 C 581.91 535.1299999999999 585.04 527.3899999999999 588.12 519.7599999999999 Q 591.55 511.2599999999999 594.94 502.8899999999999 L 597.22 497.2399999999999 C 600.22 489.8599999999999 603.22 482.6199999999999 606.22 475.5699999999999 C 609.22 468.51999999999987 612.3000000000001 461.6399999999999 615.44 455.01999999999987 C 618.58 448.39999999999986 621.8000000000001 442.01999999999987 625.19 436.07999999999987 C 626.8800000000001 433.07999999999987 628.62 430.26999999999987 630.4000000000001 427.58999999999986 C 630.8400000000001 426.90999999999985 631.2900000000001 426.27999999999986 631.7300000000001 425.58999999999986 C 632.1700000000002 424.89999999999986 632.6300000000001 424.29999999999984 633.0900000000001 423.6899999999999 C 633.9900000000001 422.4399999999999 634.9100000000002 421.27999999999986 635.8300000000002 420.14999999999986 C 637.4609754296671 418.124638968508 639.2607561515935 416.2412253134066 641.2100000000002 414.51999999999987 C 642.4954032210157 413.3671184145709 643.931960827401 412.3948346950268 645.4800000000001 411.6299999999999 C 645.898801250596 411.4249145991606 646.3378405249907 411.26404524671057 646.7900000000001 411.14999999999986 C 647.5390767696174 411.049946403591 648.2966695947189 411.0298333197387 649.0500000000001 411.08999999999986 C 650.8331593186024 411.2576767093163 652.5659891001403 411.77412793832366 654.1500000000001 412.60999999999984 C 656.2483782166124 413.7070652147642 658.2088161907556 415.0498309504786 659.9900000000001 416.60999999999984 C 660.9900000000001 417.4399999999998 661.9900000000001 418.35999999999984 662.9100000000001 419.32999999999987 C 663.83 420.2999999999999 664.82 421.32999999999987 665.7500000000001 422.32999999999987 C 669.514782317752 426.7773850867499 672.9410399315728 431.5006065582904 676 436.46 C 679.17 441.46 682.11 446.53999999999996 684.88 451.65 C 687.65 456.76 690.27 461.84999999999997 692.78 466.87 C 695.29 471.89000000000004 697.6899999999999 476.87 700.03 481.66 C 703.5899999999999 489.04 707.03 496.15000000000003 710.31 502.90000000000003 Q 711.8399999999999 506.02000000000004 713.3599999999999 509.04 Q 715.94 514.22 718.49 519.07 Z" stroke-linecap="round" />
</g>
		<g transform="matrix(0.4198375707729898 0 0 0.41983757077298983 0.0020991878539007303 5.184664401947543)"  >
<linearGradient id="SVGID_66_147268" gradientUnits="userSpaceOnUse" gradientTransform="matrix(1 0 0 1 0 0)"  x1="202.13" y1="521.7" x2="764.79" y2="521.7">
<stop offset="0%" style="stop-color:rgb(253,193,14);stop-opacity: 1"/>
<stop offset="100%" style="stop-color:rgb(237,6,120);stop-opacity: 1"/>
</linearGradient>
<path style="stroke: none; stroke-width: 1; stroke-dasharray: none; stroke-linecap: butt; stroke-dashoffset: 0; stroke-linejoin: miter; stroke-miterlimit: 4; fill: url(#SVGID_66_147268); fill-rule: nonzero; opacity: 1;"  paint-order="stroke"  transform=" translate(-483.46500000000003, -521.7041433207349)" d="M 764.79 571.19 L 763.5899999999999 570.9200000000001 C 762.8499999999999 570.72 762.0799999999999 570.4300000000001 761.2499999999999 570.1600000000001 C 759.3891284130261 569.5344500604658 757.5718049304226 568.7861403911585 755.8099999999998 567.9200000000001 L 752.8099999999998 566.2600000000001 L 752.3099999999998 565.9500000000002 C 751.8499999999998 565.6000000000001 751.3899999999999 565.2400000000001 750.9199999999998 564.8600000000001 C 746.2630518178731 560.9112847286225 742.0665077315026 556.4497310636564 738.4099999999999 551.5600000000002 C 731.7499999999999 542.8800000000002 725.1799999999998 531.8500000000001 718.4099999999999 519.0700000000002 Q 715.8599999999999 514.2200000000001 713.2799999999999 509.07000000000016 L 712.0599999999998 506.63000000000017 C 710.9499999999998 504.41000000000014 709.8299999999998 502.15000000000015 708.7199999999998 499.84000000000015 C 706 494 703.05 487.92 700 481.66 C 697.66 476.83000000000004 695.26 471.89000000000004 692.75 466.87 C 690.24 461.84999999999997 687.63 456.75 684.85 451.65 C 682.07 446.54999999999995 679.14 441.42999999999995 675.97 436.46 C 672.8920864078206 431.523038533681 669.4491453400234 426.82325684307625 665.6700000000001 422.3999999999999 C 664.7400000000001 421.33 663.7900000000001 420.31 662.83 419.4 C 661.87 418.48999999999995 660.89 417.51 659.9100000000001 416.67999999999995 C 658.1288161907555 415.1198309504788 656.1683782166124 413.7770652147643 654.07 412.67999999999995 C 652.4859891001403 411.84412793832377 650.7531593186023 411.3276767093164 648.97 411.15999999999997 C 648.2166695947188 411.0998333197388 647.4590767696174 411.1199464035911 646.71 411.21999999999997 C 646.2578405249907 411.3340452467107 645.8188012505959 411.4949145991607 645.4000000000001 411.7 C 643.851960827401 412.4648346950269 642.4154032210157 413.437118414571 641.1300000000001 414.59 C 639.1807561515934 416.3112253134067 637.380975429667 418.1946389685081 635.7500000000001 420.21999999999997 C 634.8300000000002 421.34999999999997 633.9100000000001 422.51 633.0100000000001 423.76 C 632.5500000000001 424.37 632.1100000000001 425.03 631.6500000000001 425.65999999999997 C 631.19 426.28999999999996 630.7600000000001 426.95 630.32 427.65999999999997 C 628.5400000000001 430.34 626.8000000000001 433.17999999999995 625.11 436.15 C 621.72 442.08 618.5 448.46 615.36 455.09 C 612.22 461.71999999999997 609.16 468.58 606.14 475.64 C 603.12 482.7 600.14 489.93 597.14 497.31 L 594.86 502.96 Q 591.47 511.33 588.04 519.8299999999999 C 584.9599999999999 527.4599999999999 581.8299999999999 535.1999999999999 578.5899999999999 543.04 Q 576.5199999999999 548.04 574.3699999999999 553.14 Q 571.4899999999999 559.9499999999999 568.4299999999998 566.84 C 564.8699999999999 574.84 561.1299999999999 582.96 557.0399999999998 591.14 Q 554.0399999999998 597.27 550.6199999999999 603.48 Q 547.1999999999999 609.69 543.3999999999999 615.9300000000001 C 540.8199999999998 620.1 538.0599999999998 624.2900000000001 534.9499999999998 628.5100000000001 C 531.6987180101593 632.9889140078575 528.1472251134524 637.2420188596993 524.3199999999998 641.2400000000001 C 522.1662044957317 643.4811051896885 519.8928909196637 645.6041998069854 517.5099999999999 647.6000000000001 C 514.8116053131226 649.8651195722424 511.93943656664857 651.9147580374212 508.9199999999999 653.7300000000001 C 508.0999999999999 654.2100000000002 507.2799999999999 654.7300000000001 506.38999999999993 655.1500000000001 L 505.67999999999995 655.5300000000001 L 504.92999999999995 655.9100000000001 L 503.37999999999994 656.6400000000001 C 501.3052456173061 657.5604620754428 499.17432050482176 658.3487039665812 497 659 C 488.17687029949093 661.7335243217524 478.7331297005091 661.7335243217523 469.91 659 C 467.7244235360027 658.325413445437 465.58351667158496 657.513806006976 463.5 656.57 L 461.95 655.84 L 461.2 655.46 L 460.49 655.08 C 459.6 654.62 458.78000000000003 654.14 457.96000000000004 653.6600000000001 C 454.9405634333514 651.8447580374211 452.0683946868773 649.7951195722424 449.37000000000006 647.5300000000001 C 446.9871090803362 645.5341998069854 444.71379550426826 643.4111051896884 442.56000000000006 641.1700000000001 C 438.73253427165855 637.1694811333217 435.17787966493233 632.9165908002742 431.9200000000001 628.44 C 428.82000000000005 624.22 426.06000000000006 620.0300000000001 423.4700000000001 615.86 C 420.8800000000001 611.6899999999999 418.4700000000001 607.54 416.2600000000001 603.41 C 414.0500000000001 599.28 411.8700000000001 595.16 409.8300000000001 591.0699999999999 C 405.7500000000001 582.89 402.0100000000001 574.79 398.4500000000001 566.77 Q 395.3900000000001 559.89 392.5100000000001 553.0699999999999 Q 390.3500000000001 547.9999999999999 388.2900000000001 542.9699999999999 C 385.05000000000007 535.1299999999999 381.9200000000001 527.3899999999999 378.8400000000001 519.7599999999999 Q 375.4100000000001 511.2599999999999 372.0200000000001 502.8899999999999 L 369.7400000000001 497.2399999999999 Q 365.2500000000001 486.1699999999999 360.7400000000001 475.5699999999999 C 357.7400000000001 468.5099999999999 354.66000000000014 461.6399999999999 351.5200000000001 455.01999999999987 C 348.38000000000005 448.39999999999986 345.1600000000001 442.01999999999987 341.7700000000001 436.07999999999987 C 340.0800000000001 433.07999999999987 338.3400000000001 430.26999999999987 336.5700000000001 427.58999999999986 C 336.1200000000001 426.90999999999985 335.67000000000013 426.27999999999986 335.23000000000013 425.58999999999986 C 334.79000000000013 424.89999999999986 334.33000000000015 424.29999999999984 333.8700000000001 423.6899999999999 C 332.97000000000014 422.4399999999999 332.0500000000001 421.27999999999986 331.1300000000001 420.14999999999986 C 329.4990245703332 418.124638968508 327.69924384840675 416.2412253134066 325.7500000000001 414.51999999999987 C 324.4645967789845 413.3671184145709 323.0280391725993 412.3948346950268 321.48000000000013 411.6299999999999 C 321.0611987494043 411.4249145991606 320.6221594750095 411.26404524671057 320.17000000000013 411.14999999999986 C 319.4209232303828 411.049946403591 318.6633304052813 411.0298333197387 317.91000000000014 411.08999999999986 C 316.1239121294723 411.2589440257847 314.38805072537946 411.7752863612487 312.8000000000001 412.60999999999984 C 310.70632358673635 413.70975278872265 308.7495031636343 415.0523396999419 306.97000000000014 416.60999999999984 C 305.97000000000014 417.4399999999998 304.97000000000014 418.35999999999984 304.0500000000001 419.32999999999987 C 303.1300000000001 420.2999999999999 302.1400000000001 421.32999999999987 301.22000000000014 422.32999999999987 C 297.4344226442257 426.75054743714065 293.98796305096107 431.4505689581203 290.91000000000014 436.3899999999999 C 287.7400000000001 441.3899999999999 284.8000000000001 446.46999999999986 282.03000000000014 451.57999999999987 C 279.26000000000016 456.6899999999999 276.64000000000016 461.77999999999986 274.13000000000017 466.7999999999999 C 271.6200000000002 471.81999999999994 269.22000000000014 476.7999999999999 266.89000000000016 481.5899999999999 C 264.02000000000015 487.5199999999999 261.26000000000016 493.2799999999999 258.57000000000016 498.80999999999995 L 256.57000000000016 502.80999999999995 L 254.29000000000016 507.40999999999997 L 253.52000000000015 508.95 Q 250.94000000000014 514.13 248.39000000000016 518.95 C 241.67000000000016 531.73 235.10000000000016 542.76 228.44000000000017 551.44 C 224.81243373403115 556.3679381098102 220.63925518275073 560.8698718845836 216 564.86 C 215.53 565.24 215.07 565.6 214.61 565.95 C 214.45000000000002 566.0600000000001 214.28 566.1600000000001 214.11 566.26 L 211.11 567.92 C 209.351561355784 568.7860002983922 207.53757308886122 569.5343122169754 205.68 570.16 C 204.84 570.43 204.07 570.7199999999999 203.33 570.92 L 202.14000000000001 571.1899999999999 C 202.68 570.9599999999999 203.25000000000003 570.6999999999999 203.83 570.4 L 204.31 570.14 L 204.31 570.14 C 205.8420253285533 569.3131065660098 207.30655265074068 568.366848045053 208.69 567.31 C 210.52256496813123 565.8935383585291 212.23810776635196 564.3318259086868 213.82 562.64 C 217.70396687655716 558.3715593187721 221.08911755381902 553.6746208171204 223.91 548.64 C 227.481465008514 542.3030892854962 230.64133091512446 535.7428602785374 233.36999999999995 529 C 236.44 521.62 239.43 513.44 242.48000000000002 504.56 L 243.05 502.91 Q 245.68 495.17 248.42000000000002 486.74 C 249.58 483.2 250.76000000000002 479.57 251.99 475.86 C 255.35000000000002 465.63 258.99 454.77000000000004 263.36 443.35 C 265.58000000000004 437.65000000000003 267.99 431.79 270.81 425.83000000000004 C 273.74073314924004 419.5043684591237 277.1471762241597 413.41021171174543 281 407.6 C 282 406.07000000000005 283.14 404.53000000000003 284.33 403 C 285.52 401.46999999999997 286.77 399.93 288.15999999999997 398.41 C 291.09814083082665 395.1366097641746 294.41087028042415 392.21993104917937 298.03 389.72 C 300.0729161062057 388.3258606400067 302.2268136008613 387.10175119428624 304.46999999999997 386.06 C 306.879497156656 384.94391640139656 309.39115788262626 384.063160706823 311.96999999999997 383.43 C 328.30999999999995 379.43 342.68999999999994 387.12 354.18999999999994 398.29 C 376.88999999999993 420.29 391.48999999999995 451.46000000000004 406.41999999999996 479.18 C 427.34999999999997 518.04 443.68999999999994 559.12 466.47999999999996 597.09 C 470.28 603.4200000000001 476.25999999999993 611.74 484.68999999999994 611.1600000000001 C 495.09999999999997 610.45 500.94999999999993 594.3800000000001 505.38999999999993 586.82 C 529.6899999999999 545.4300000000001 548.3899999999999 501.46000000000004 570.8899999999999 459.19000000000005 C 580.82 440.55 592 420.7 606 404.68 C 619.82 388.89 641.75 376.44 662.4 386.06 C 664.6431863991387 387.10175119428624 666.7970838937943 388.3258606400066 668.84 389.72 C 672.4591297195758 392.2199310491794 675.7718591691734 395.1366097641746 678.71 398.41 C 680.09 399.93 681.35 401.41 682.5400000000001 403 C 683.7300000000001 404.59 684.84 406.07 685.8700000000001 407.6 C 689.7258161286826 413.40668113118187 693.1355985174096 419.4974884961431 696.0700000000002 425.81999999999994 C 698.8900000000002 431.82000000000005 701.3100000000002 437.64000000000004 703.5100000000002 443.34000000000003 C 707.9200000000002 454.76000000000005 711.5100000000002 465.62 714.9000000000002 475.85 Q 716.7300000000002 481.41 718.4600000000002 486.73 Q 721.2200000000001 495.16 723.8300000000002 502.90000000000003 L 724.4000000000002 504.55 C 727.4500000000002 513.4300000000001 730.4000000000002 521.61 733.5100000000002 528.99 C 736.249185536528 535.7268007696647 739.4190691650617 542.2803431081088 743 548.61 C 745.820882446181 553.6446208171204 749.2060331234428 558.3415593187722 753.09 562.61 C 754.6709143861721 564.2991787925786 756.3829160733974 565.8607115815125 758.21 567.28 C 759.6083652239428 568.3465260410997 761.0897500588997 569.2995614315347 762.64 570.13 L 763.1 570.37 C 763.68 570.7 764.25 571 764.79 571.19 Z" stroke-linecap="round" />
</g>
		<g transform="matrix(0.4198375707729898 0 0 0.41983757077298983 0 11.849845047653872)"  >
<linearGradient id="SVGID_67_147269" gradientUnits="userSpaceOnUse" gradientTransform="matrix(1 0 0 1 0 0)"  x1="483.46" y1="666.63" x2="483.46" y2="408.64">
<stop offset="0%" style="stop-color:rgb(255,255,255);stop-opacity: 1"/>
<stop offset="100%" style="stop-color:rgb(239,142,28);stop-opacity: 1"/>
</linearGradient>
<path style="stroke: none; stroke-width: 1; stroke-dasharray: none; stroke-linecap: butt; stroke-dashoffset: 0; stroke-linejoin: miter; stroke-miterlimit: 4; fill: url(#SVGID_67_147269); fill-rule: nonzero; opacity: 1;"  paint-order="stroke"  transform=" translate(-483.46, -537.5797607254246)" d="M 764.79 571.19 L 763.5899999999999 570.9200000000001 C 762.8499999999999 570.72 762.0799999999999 570.4300000000001 761.2499999999999 570.1600000000001 C 759.3891284130261 569.5344500604658 757.5718049304226 568.7861403911585 755.8099999999998 567.9200000000001 L 752.8099999999998 566.2600000000001 L 752.3099999999998 565.9500000000002 C 751.4599999999998 565.4300000000002 750.6099999999998 564.8100000000002 749.7099999999998 564.2200000000001 C 744.9111437793015 560.7382383962771 740.5790761906042 556.6548698002591 736.8199999999998 552.0700000000002 C 732.1461474925471 546.3492824803376 727.8407941282164 540.3371521034601 723.9299999999998 534.0700000000002 C 719.5499999999998 527.2900000000002 714.9999999999999 519.7800000000002 710.3599999999998 511.5600000000002 C 705.7199999999997 503.34000000000015 701.0599999999998 494.38000000000017 696.4699999999998 484.70000000000016 Q 693.0199999999998 477.46000000000015 689.6799999999998 469.64000000000016 C 688.5499999999998 467.04000000000013 687.4699999999998 464.39000000000016 686.3599999999998 461.69000000000017 L 683.1299999999998 453.5400000000002 C 680.9812971230194 448.00159866431693 678.5412235597288 442.5806965209734 675.8199999999998 437.30000000000024 C 673.1557473583964 431.9614493000579 669.6775251127583 427.06967213596937 665.5099999999999 422.8000000000002 C 663.4977330797891 420.7806089933775 661.1450177175155 419.1320156388059 658.5599999999998 417.9300000000002 C 656.0503016763951 416.7951888059235 653.3126829843707 416.2545091142487 650.5599999999998 416.3500000000002 C 645.0899999999998 416.4200000000002 639.8799999999999 419.6200000000002 635.8399999999998 424.3500000000002 C 631.4667173649099 429.52367269951384 627.6522172268018 435.14486490654997 624.4599999999998 441.12000000000023 C 621.0799999999998 447.2300000000002 618.0099999999998 453.7400000000002 614.9099999999999 460.44000000000017 Q 612.5899999999998 465.44000000000017 610.2099999999998 470.59000000000015 Q 607.8299999999998 475.7400000000001 605.6099999999998 480.85000000000014 Q 601.0799999999998 491.2500000000001 596.7599999999998 502.09000000000015 C 590.9699999999998 516.5300000000002 585.3399999999998 531.5000000000001 579.3699999999998 546.7900000000002 C 573.3999999999997 562.0800000000003 567.0899999999998 577.6900000000002 559.7699999999998 593.2800000000002 C 556.1199999999998 601.0700000000002 552.2199999999998 608.8600000000002 547.9799999999998 616.5700000000002 C 545.9799999999998 620.4100000000002 543.5699999999998 624.3600000000001 541.1199999999998 628.1600000000002 C 538.6098059749644 632.0012733200405 535.9063306300526 635.7127110774996 533.0199999999998 639.2800000000002 C 532.2999999999997 640.1800000000002 531.5099999999998 641.0500000000002 530.7599999999998 641.9300000000002 C 530.0099999999998 642.8100000000002 529.2299999999998 643.7000000000002 528.4099999999997 644.5400000000002 L 526 647 L 523.41 649.44 C 519.8744927522954 652.7270672265463 516.018572466561 655.6516705362302 511.9 658.1700000000001 C 510.8678444034191 658.8414889082783 509.79956704329265 659.455748390351 508.7 660.0100000000001 C 507.59999999999997 660.57 506.5 661.1500000000001 505.39 661.69 C 503.09647509461416 662.7083660957027 500.7419475975677 663.583381988222 498.34 664.3100000000001 C 495.918812015118 665.0513336090492 493.44970391590306 665.6260110015593 490.95 666.0300000000001 C 489.7 666.21 488.43 666.3000000000001 487.15999999999997 666.4300000000001 C 486.53 666.4300000000001 485.89 666.5500000000001 485.26 666.59 L 483.36 666.59 L 479.56 666.59 L 475.78000000000003 666.1600000000001 L 473.89000000000004 665.9200000000001 L 472.03000000000003 665.5100000000001 C 470.8 665.2200000000001 469.55 664.9800000000001 468.34000000000003 664.6400000000001 C 465.9276008832123 663.9171493226391 463.56575886670896 663.0352168016252 461.27000000000004 662.0000000000001 L 459.56000000000006 661.2300000000001 L 458.71000000000004 660.8400000000001 L 457.90000000000003 660.3900000000001 L 454.66 658.5600000000001 C 453.59000000000003 657.95 452.66 657.21 451.59000000000003 656.5600000000001 C 450.5702956637067 655.8946163869607 449.58564989294416 655.1769931980999 448.64000000000004 654.4100000000001 L 445.81000000000006 652.1400000000001 L 443.1600000000001 649.7200000000001 L 441.8400000000001 648.5100000000001 L 440.61000000000007 647.2400000000001 L 438.1600000000001 644.6800000000002 C 436.6500000000001 642.9000000000002 435.0400000000001 641.1800000000002 433.6600000000001 639.3300000000002 C 430.80053349630987 635.7416732536893 428.1302371163075 632.006596192161 425.6600000000001 628.1400000000001 C 423.2700000000001 624.32 420.94000000000005 620.4200000000001 418.8800000000001 616.57 C 414.6500000000001 608.86 410.7400000000001 601.07 407.0900000000001 593.2800000000001 C 399.7800000000001 577.69 393.4700000000001 562.08 387.5000000000001 546.7900000000001 C 381.53000000000014 531.5000000000001 375.9000000000001 516.5300000000001 370.10000000000014 502.0900000000001 Q 365.77000000000015 491.2600000000001 361.2500000000001 480.8500000000001 Q 358.9900000000001 475.6600000000001 356.6500000000001 470.5900000000001 Q 354.31000000000006 465.5200000000001 352 460.4 C 348.9 453.7 345.84 447.19 342.45 441.08 C 339.2577827731979 435.1048649065498 335.44328263508993 429.4836726995136 331.06999999999994 424.30999999999995 C 327.07 419.61 321.83 416.41 316.34999999999997 416.31 C 313.5973170156291 416.21450911424853 310.8596983236048 416.7551888059233 308.34999999999997 417.89 C 305.7649822824843 419.0920156388057 303.41226692021075 420.7406089933773 301.4 422.76 C 297.23247488724144 427.02967213596924 293.75425264160333 431.92144930005776 291.09 437.26000000000005 C 288.368776440271 442.5406965209732 285.9287028769803 447.96159866431674 283.78 453.50000000000006 L 280.54999999999995 461.65 C 279.44999999999993 464.34999999999997 278.35999999999996 467 277.22999999999996 469.59999999999997 Q 273.89 477.4 270.43999999999994 484.65999999999997 C 265.84999999999997 494.34 261.16999999999996 503.29999999999995 256.54999999999995 511.52 C 251.92999999999995 519.74 247.35999999999996 527.25 242.97999999999996 534.03 C 239.06920587178334 540.2971521034599 234.7638525074527 546.3092824803374 230.08999999999997 552.03 C 226.33092380939559 556.6148698002589 221.99885622069834 560.6982383962769 217.2 564.18 C 216.29999999999998 564.77 215.45999999999998 565.39 214.6 565.91 C 214.44 566.02 214.26999999999998 566.12 214.1 566.2199999999999 L 211.1 567.8799999999999 C 209.341561355784 568.7460002983921 207.52757308886117 569.4943122169753 205.67 570.1199999999999 C 204.82999999999998 570.3899999999999 204.05999999999997 570.6799999999998 203.32 570.8799999999999 L 202.13 571.1499999999999 C 202.67 570.9199999999998 203.24 570.6599999999999 203.82 570.3599999999999 L 204.29999999999998 570.0999999999999 L 204.29999999999998 570.0999999999999 L 205.48 569.6399999999999 C 212 567.3099999999998 220.64 561.2799999999999 228.58999999999997 550.8499999999999 C 232.96626738086286 545.0086780262698 236.97404358424095 538.9001591296211 240.59000000000003 532.56 C 244.65999999999997 525.65 248.89 518.03 253.17999999999998 509.7099999999999 L 254.32999999999998 507.4599999999999 Q 256.46 503.2699999999999 258.58 498.8399999999999 C 265.9796597003638 483.3867704259888 272.5098432304687 467.532045689553 278.1399999999999 451.35 C 280.19088311628013 445.5315861303991 282.55090771941764 439.82680247161267 285.2099999999999 434.25999999999993 C 288.03180539428996 428.18385632121675 291.7909998245454 422.5889331925242 296.34999999999997 417.67999999999995 C 298.8909953172741 415.01147047778977 301.8794097141186 412.8082340425171 305.17999999999995 411.16999999999996 C 308.7038475164553 409.46077334470635 312.5735825915486 408.58486514026436 316.48999999999995 408.60999999999996 C 317.48999999999995 408.66999999999996 318.41999999999996 408.60999999999996 319.43999999999994 408.79999999999995 C 320.4512244250948 408.9205064339529 321.4533996022777 409.1075791336937 322.43999999999994 409.35999999999996 C 324.3822659779662 409.8698003758136 326.25831762084704 410.6047830409136 328.0299999999999 411.54999999999995 C 331.4812251359182 413.403751346939 334.58133816877194 415.84729022217965 337.18999999999994 418.77 C 342.08892685771457 424.2893988057128 346.3833595368304 430.3170256262048 350 436.75 C 353.72 443.12 357 449.75 360.29 456.44 C 361.92 459.76 363.56 463.12 365.22 466.49 C 366.88000000000005 469.86 368.51000000000005 473.35 370.11 476.84000000000003 Q 374.93 487.31000000000006 379.49 498.18 C 385.6 512.66 391.49 527.59 397.64 542.71 C 403.78999999999996 557.83 410.2 573.1500000000001 417.49 588.3000000000001 C 421.13 595.8800000000001 424.99 603.4100000000001 429.14 610.84 C 431.2 614.6 433.34999999999997 618.15 435.59999999999997 621.71 C 437.86330352271546 625.2180929118027 440.3031052458859 628.6091169210246 442.90999999999997 631.87 C 444.16999999999996 633.54 445.59 635.02 446.90999999999997 636.6 L 449.04999999999995 638.8100000000001 L 450.11999999999995 639.9200000000001 L 451.24999999999994 640.9200000000001 L 453.5199999999999 642.9200000000001 L 455.88999999999993 644.8000000000001 C 456.66618529683944 645.4365205667475 457.48108128740336 646.0243143960067 458.3299999999999 646.5600000000001 C 459.1699999999999 647.1 459.9599999999999 647.73 460.8299999999999 648.21 L 463.4199999999999 649.6700000000001 L 464.0699999999999 650.0300000000001 L 464.7399999999999 650.33 L 466.0899999999999 650.9300000000001 C 467.8791339315258 651.7124561750726 469.7161663779809 652.3804679737835 471.5899999999999 652.9300000000001 C 472.5399999999999 653.19 473.49999999999994 653.3700000000001 474.44999999999993 653.59 L 475.87999999999994 653.9200000000001 L 477.3399999999999 654.09 L 480.25999999999993 654.44 L 483.25999999999993 654.44 L 484.73999999999995 654.44 L 486.21 654.3000000000001 C 487.21 654.2 488.15999999999997 654.1400000000001 489.13 654.0100000000001 C 491.0604475980225 653.6879770980847 492.96783114715805 653.240359942946 494.84 652.6700000000001 C 496.72643772824836 652.1191182667607 498.5766937104111 651.4511558183265 500.38 650.6700000000001 L 503.04 649.32 C 503.93783190352184 648.8798094549103 504.80630511885687 648.3821074968914 505.64000000000004 647.83 C 509.10910839521455 645.7276102362317 512.3557617937834 643.2783804794167 515.33 640.5200000000001 L 517.58 638.4300000000001 L 519.73 636.2 C 520.46 635.47 521.14 634.69 521.8100000000001 633.9100000000001 C 522.4800000000001 633.1300000000001 523.19 632.3600000000001 523.8100000000001 631.5500000000001 C 526.4483678911007 628.3447838606484 528.9215791250219 625.0071168782986 531.22 621.5500000000001 C 533.51 618.0300000000001 535.64 614.5500000000001 537.7 610.7600000000001 C 541.85 603.3300000000002 545.7 595.7600000000001 549.35 588.2200000000001 C 556.64 573.0700000000002 563.0500000000001 557.7500000000001 569.2 542.6300000000001 C 575.35 527.5100000000001 581.2 512.5800000000002 587.35 498.10000000000014 Q 591.94 487.2400000000001 596.73 476.76000000000016 C 598.33 473.27000000000015 599.97 469.82000000000016 601.62 466.41000000000014 C 603.27 463.0000000000001 604.92 459.6800000000001 606.55 456.3600000000001 C 609.81 449.6800000000001 613.12 443.04000000000013 616.8499999999999 436.67000000000013 C 620.4812559157102 430.2488267508186 624.7891060498265 424.2345986258344 629.6999999999999 418.73000000000013 C 632.3107754051389 415.8095380955617 635.4104668208754 413.36633154298323 638.8599999999999 411.5100000000001 C 640.6325168413844 410.56659537834304 642.5083527189984 409.8316972438216 644.4499999999999 409.3200000000001 C 645.4366003977221 409.06757913369387 646.4387755749051 408.88050643395303 647.4499999999999 408.7600000000001 C 648.4499999999999 408.6100000000001 649.4499999999999 408.6300000000001 650.4499999999999 408.5700000000001 C 654.3630835339329 408.54604236181905 658.2293050910037 409.42192972342093 661.7499999999999 411.1300000000001 C 665.0505902858813 412.76823404251724 668.0390046827257 414.9714704777899 670.5799999999999 417.6400000000001 C 675.1390001754545 422.5489331925244 678.8981946057099 428.1438563212169 681.7199999999999 434.2200000000001 C 684.3875398127966 439.78303698655424 686.7477557346733 445.48828311171303 688.79 451.31 C 694.5195984879066 467.82132462037447 701.1973684732976 483.98820575500616 708.7900000000001 499.73000000000025 C 709.9 502.0400000000001 711.02 504.30000000000007 712.13 506.5200000000001 C 712.67 507.5800000000001 713.2 508.6300000000001 713.74 509.6700000000001 C 718.02 517.9900000000001 722.25 525.6100000000001 726.33 532.5200000000001 C 729.942426547164 538.8623201060315 733.9503448958392 544.9710556558038 738.3300000000002 550.8100000000001 C 746.33 561.24 754.9300000000001 567.2700000000001 761.44 569.6 L 762.6600000000001 570.08 L 763.1200000000001 570.32 C 763.68 570.7 764.25 571 764.79 571.19 Z" stroke-linecap="round" />
</g>
</g>
</g>
<g transform="matrix(1.9211538461538462 0 0 1.9211538461538462 793.4256543563747 559.173230023393)" id="text-logo"  >
<g style=""  paint-order="stroke"   >
		<g transform="matrix(1 0 0 1 0 0)" id="text-logo-path-0"  >
<path style="stroke: rgb(255,255,255); stroke-width: 0; stroke-dasharray: none; stroke-linecap: butt; stroke-dashoffset: 0; stroke-linejoin: miter; stroke-miterlimit: 4; fill: rgb(255,255,255); fill-rule: nonzero; opacity: 1;"  paint-order="stroke"  transform=" translate(-226.495, 24.455)" d="M 26.33 0.67 C 31.42 0.67 36.05 -0.8 39.66 -3.35 L 40.4 0 L 49.11 0 L 49.11 -25.13 L 26.73 -25.13 L 26.73 -15.08 L 36.58 -15.08 C 34.3 -11.93 30.75 -10.05 26.33 -10.05 C 18.63 -10.05 12.93 -15.41 12.93 -23.45 C 12.93 -31.16 18.29 -36.85 26.33 -36.85 C 30.69 -36.85 34.3 -35.18 36.72 -32.09 L 44.89 -38.99 C 40.47 -44.35 33.97 -47.57 26.33 -47.57 C 12.33 -47.57 2.21 -38.06 2.21 -23.45 C 2.21 -9.45 11.73 0.67 26.33 0.67 Z M 84.55 0.67 C 90.99 0.67 96.95 -1.41 100.03 -6.03 L 91.79 -10.79 C 88.04 -6.97 80.67 -6.83 77.59 -12.93 L 101.24 -12.93 C 101.44 -14.14 101.57 -15.41 101.57 -16.75 C 101.57 -26.8 95.21 -34.17 84.55 -34.17 C 74.3 -34.17 66.93 -27.27 66.93 -16.75 C 66.93 -6.63 73.9 0.67 84.55 0.67 Z M 91.45 -21.24 L 77.52 -21.24 C 77.72 -23.58 81.2 -25.13 84.49 -25.13 C 88.11 -25.13 91.12 -23.72 91.45 -21.24 Z M 121.14 0 L 131.86 0 L 131.86 -19.43 C 131.86 -22.85 133.53 -25.06 136.95 -25.06 C 140.23 -25.06 141.84 -22.85 141.84 -20.17 L 141.84 0 L 152.56 0 L 152.56 -19.9 C 152.56 -29.55 146.93 -34.17 139.56 -34.17 C 136.55 -34.17 134.34 -33.1 131.86 -31.56 L 131.86 -33.5 L 121.14 -33.5 Z M 200.46 0 L 212.52 0 L 197.11 -46.9 L 185.05 -46.9 L 169.64 0 L 181.7 0 L 183.91 -7.71 L 198.25 -7.71 Z M 186.8 -17.76 L 191.08 -32.83 L 195.37 -17.76 Z M 260.56 -33.5 L 249.84 -33.5 L 249.84 -14.07 C 249.84 -10.65 248.17 -8.44 244.75 -8.44 C 241.47 -8.44 239.86 -10.65 239.86 -13.33 L 239.86 -33.5 L 229.14 -33.5 L 229.14 -13.6 C 229.14 -3.95 234.77 0.67 242.14 0.67 C 245.15 0.67 247.36 -0.4 249.84 -1.94 L 249.84 0 L 260.56 0 Z M 297.01 0.67 C 300.83 0.67 304.18 -0.34 306.79 -2.21 L 306.79 0 L 317.51 0 L 317.51 -46.9 L 306.79 -46.9 L 306.79 -31.29 C 304.25 -33.1 300.9 -34.17 297.01 -34.17 C 287.23 -34.17 280.6 -27.54 280.6 -16.75 C 280.6 -6.37 286.83 0.67 297.01 0.67 Z M 299.02 -9.51 C 294.26 -9.51 291.32 -12.4 291.32 -16.75 C 291.32 -21.17 294.47 -23.99 299.02 -23.99 C 303.64 -23.99 306.59 -21.11 306.59 -16.75 C 306.59 -12.33 303.51 -9.51 299.02 -9.51 Z M 339.02 0 L 349.74 0 L 349.74 -33.5 L 339.02 -33.5 Z M 344.45 -37.05 C 348 -37.05 350.68 -39.6 350.68 -43.35 C 350.68 -46.9 348.13 -49.58 344.45 -49.58 C 340.83 -49.58 338.15 -47.1 338.15 -43.35 C 338.15 -39.73 340.69 -37.05 344.45 -37.05 Z M 401.13 -33.5 L 390.41 -33.5 L 390.41 -14.07 C 390.41 -10.65 388.73 -8.44 385.32 -8.44 C 382.03 -8.44 380.43 -10.65 380.43 -13.33 L 380.43 -33.5 L 369.71 -33.5 L 369.71 -13.6 C 369.71 -3.95 375.33 0.67 382.7 0.67 C 385.72 0.67 387.93 -0.4 390.41 -1.94 L 390.41 0 L 401.13 0 Z M 435.97 0.67 C 445.08 0.67 450.78 -4.02 450.78 -10.65 C 450.78 -17.02 446.35 -19.43 439.12 -21.04 C 434.23 -22.04 432.08 -22.31 432.08 -23.99 C 432.08 -25.33 433.49 -26 435.63 -26 C 438.05 -26 439.52 -25.19 440.99 -23.12 L 449.5 -27.34 C 446.55 -31.49 441.46 -34.17 435.63 -34.17 C 428.8 -34.17 421.5 -30.42 421.5 -23.52 C 421.5 -16.62 426.99 -15.14 433.76 -13.2 C 438.25 -11.99 440.46 -11.66 440.46 -9.85 C 440.46 -8.38 438.11 -7.44 435.97 -7.44 C 432.95 -7.44 430.21 -7.97 428.6 -11.19 L 420.22 -6.97 C 423.24 -2.55 428.6 0.67 435.97 0.67 Z" stroke-linecap="round" />
</g>
</g>
</g>
<g transform="matrix(1.9211538461538462 0 0 1.9211538461538462 793.235940414067 655.9156788347126)" id="tagline-a19eef16-3971-458d-bc53-4ccd40befc29-logo"  >
<g style=""  paint-order="stroke"   >
		<g transform="matrix(1 0 0 1 0 0)" id="tagline-a19eef16-3971-458d-bc53-4ccd40befc29-logo-path-0"  >
<path style="stroke: none; stroke-width: 0; stroke-dasharray: none; stroke-linecap: butt; stroke-dashoffset: 0; stroke-linejoin: miter; stroke-miterlimit: 4; fill: rgb(136,70,203); fill-rule: nonzero; opacity: 1;"  paint-order="stroke"  transform=" translate(-197.48000000000002, 8.75)" d="M 4.03 0 L 5.38 -3.5 L 13.23 -3.5 L 14.58 0 L 17.78 0 L 11.03 -17.5 L 7.58 -17.5 L 0.83 0 Z M 6.53 -6.5 L 9.3 -13.68 L 12.08 -6.5 Z M 33.85 0 L 33.85 -17.5 L 30.85 -17.5 L 30.85 0 Z M 66.35 0 L 66.35 -11.48 L 71.35 0 L 74.85 0 L 79.85 -11.48 L 79.85 0 L 82.85 0 L 82.85 -17.5 L 79.23 -17.5 L 73.1 -3.45 L 66.98 -17.5 L 63.35 -17.5 L 63.35 0 Z M 108.05 -17.5 L 108.05 -7.5 C 108.05 -3.7 107.08 -2.75 103.48 -2.75 C 99.85 -2.75 98.93 -3.75 98.93 -7.5 L 98.93 -17.5 L 95.93 -17.5 L 95.93 -7.5 C 95.93 -2.15 98.05 0.25 103.48 0.25 C 108.73 0.25 111.05 -1.98 111.05 -7.5 L 111.05 -17.5 Z M 135.68 -12.5 L 138.68 -12.5 C 138.68 -16.25 136.8 -17.75 131.7 -17.75 C 125.63 -17.75 124.13 -15.63 124.13 -12.1 C 124.13 -9.85 125.65 -7.53 128.88 -7.38 L 134.35 -7.15 C 135.93 -7.08 136.25 -6.73 136.25 -5.4 C 136.25 -3.35 135.65 -2.75 131.68 -2.75 C 127.58 -2.75 127.13 -3.15 127.13 -5.4 L 124.13 -5.4 C 124.13 -1.5 125.73 0.25 131.68 0.25 C 137.45 0.25 139.25 -1.65 139.25 -5.4 C 139.25 -8.5 137.48 -10.03 134.5 -10.15 L 129.03 -10.38 C 127.7 -10.43 127.13 -11.2 127.13 -12.1 C 127.13 -14.18 127.68 -14.75 131.7 -14.75 C 135.2 -14.75 135.68 -14.4 135.68 -12.5 Z M 155.33 0 L 155.33 -17.5 L 152.33 -17.5 L 152.33 0 Z M 184.58 -2.7 L 182.08 -4.35 C 181.38 -3.28 179.93 -2.75 177.18 -2.75 C 172.6 -2.75 171.4 -3.98 171.4 -8.75 C 171.4 -13.55 172.63 -14.75 177.18 -14.75 C 179.48 -14.75 180.85 -14.4 181.65 -13.68 L 183.65 -15.88 C 182.18 -17.25 180.03 -17.75 177.18 -17.75 C 170.98 -17.75 168.4 -15.28 168.4 -8.75 C 168.4 -2.33 170.9 0.25 177.18 0.25 C 180.65 0.25 183.15 -0.53 184.58 -2.7 Z M 230.25 -2.7 L 227.75 -4.35 C 227.05 -3.28 225.6 -2.75 222.85 -2.75 C 218.28 -2.75 217.08 -3.98 217.08 -8.75 C 217.08 -13.55 218.3 -14.75 222.85 -14.75 C 225.15 -14.75 226.53 -14.4 227.33 -13.68 L 229.33 -15.88 C 227.85 -17.25 225.7 -17.75 222.85 -17.75 C 216.65 -17.75 214.08 -15.28 214.08 -8.75 C 214.08 -2.33 216.58 0.25 222.85 0.25 C 226.33 0.25 228.83 -0.53 230.25 -2.7 Z M 246.33 0 L 246.33 -6 L 250.73 -6 L 254.1 0 L 257.55 0 L 254 -6.33 C 256.18 -7 257.35 -8.8 257.35 -11.75 C 257.35 -15.48 255.5 -17.5 251.6 -17.5 L 243.33 -17.5 L 243.33 0 Z M 246.33 -9 L 246.33 -14.5 L 251.6 -14.5 C 253.75 -14.5 254.35 -13.88 254.35 -11.75 C 254.35 -9.6 253.73 -9 251.6 -9 Z M 270.63 0 L 283.63 0 L 283.63 -3 L 273.63 -3 L 273.63 -7.25 L 281.13 -7.25 L 281.13 -10.25 L 273.63 -10.25 L 273.63 -14.5 L 283.63 -14.5 L 283.63 -17.5 L 270.63 -17.5 Z M 299.9 0 L 301.25 -3.5 L 309.1 -3.5 L 310.45 0 L 313.65 0 L 306.9 -17.5 L 303.45 -17.5 L 296.7 0 Z M 302.4 -6.5 L 305.18 -13.68 L 307.95 -6.5 Z M 331.23 0 L 331.23 -14.5 L 336.73 -14.5 L 336.73 -17.5 L 322.73 -17.5 L 322.73 -14.5 L 328.23 -14.5 L 328.23 0 Z M 358.08 -2.75 C 353.5 -2.75 352.3 -3.98 352.3 -8.75 C 352.3 -13.55 353.53 -14.75 358.08 -14.75 C 362.63 -14.75 363.83 -13.53 363.83 -8.75 C 363.83 -3.95 362.6 -2.75 358.08 -2.75 Z M 358.08 0.25 C 364.25 0.25 366.83 -2.23 366.83 -8.75 C 366.83 -15.2 364.33 -17.75 358.08 -17.75 C 351.88 -17.75 349.3 -15.28 349.3 -8.75 C 349.3 -2.33 351.8 0.25 358.08 0.25 Z M 382.9 0 L 382.9 -6 L 387.3 -6 L 390.68 0 L 394.13 0 L 390.58 -6.33 C 392.75 -7 393.93 -8.8 393.93 -11.75 C 393.93 -15.48 392.08 -17.5 388.18 -17.5 L 379.9 -17.5 L 379.9 0 Z M 382.9 -9 L 382.9 -14.5 L 388.18 -14.5 C 390.33 -14.5 390.93 -13.88 390.93 -11.75 C 390.93 -9.6 390.3 -9 388.18 -9 Z" stroke-linecap="round" />
</g>
</g>
</g>
</svg>